<?xml version="1.0" encoding="UTF-8"?>
<svg id="b" data-name="Layer 2" xmlns="http://www.w3.org/2000/svg" viewBox="0 0 310.58 157.12">
  <g id="c" data-name="Layer 1">
    <g>
      <ellipse cx="222.06" cy="76.65" rx="70.86" ry="72.65" fill="none" stroke="#fff" stroke-miterlimit="10" strokeWidth="8"/>
      <g>
        <path d="m27.1,28.4h41.95c.2.03.3.12.3.3,0,1.58-.2,2.37-.59,2.37l-43.28,10.82c0-.1-.05-.15-.15-.15.91-8.89,1.51-13.34,1.78-13.34Zm41.5,6.37c0,.1.05.15.15.15-.54,5.43-.94,8.15-1.19,8.15h-13.49c-2.69,25.59-4.13,38.39-4.3,38.39h-14.67c-.2,0-.3-.15-.3-.44,0-.62,1.38-13.27,4.15-37.95h-4v-.3l33.65-8Z" fill="#fff"/>
        <path d="m77.22,29.29h14.53c.2.02.3.12.3.3-2.17,20.13-3.31,30.31-3.41,30.54-.15.1-5.29,1.38-15.42,3.85,0-.1-.05-.15-.15-.15,2.37-21.74,3.66-33.2,3.85-34.39l.3-.15Zm13.93,32.61l.15.3c-1.28,12.53-2.03,18.95-2.22,19.27h-14.97v-.15c.94-10.57,1.58-15.86,1.93-15.86l15.12-3.56Z" fill="#fff"/>
        <path d="m139.52,51.52v.15c-6.03,18.46-9.29,28.34-9.78,29.65l-.3.15h-10.82c-.27,0-.57-2.22-.89-6.67-.1-.2-.69-5.48-1.78-15.86h-.15c-1.48,14.72-2.32,22.09-2.52,22.09h-12.3c-.2,0-.3-.1-.3-.3,1.38-13.29,2.17-20.16,2.37-20.6,2.35-.49,10.2-2.37,23.57-5.63l.15.3v1.04h.3c0-1.38.99-2.08,2.96-2.08,5.61-1.48,8.77-2.22,9.49-2.22Zm-16.01-23.12c.37,0,.86,3.8,1.48,11.41.1,0,.54,3.9,1.33,11.71,0,.17-3.61,1.11-10.82,2.82-.1-.2-.25-1.43-.44-3.71h-.15c-.15,2.77-.49,4.15-1.04,4.15l-12.45,3.11c0-.1-.05-.15-.15-.15,2.08-18.95,3.21-28.73,3.41-29.35h18.83Zm31.42,0c.2.03.3.12.3.3-1.09,10.57-1.73,16.01-1.93,16.3-.3,0-8.5,2.03-24.61,6.08v-.15c4.54-14.3,7.02-21.81,7.41-22.53h18.83Zm-1.93,20.01c-2.27,22.04-3.51,33.05-3.71,33.05h-12.3c-.2,0-.3-.1-.3-.3,2.08-19.96,3.21-29.94,3.41-29.94,8.25-1.98,12.55-2.96,12.9-2.96v.15Z" fill="#fff"/>
        <path d="m189.24,28.4h11.86c.2,0,.3.15.3.45-.74,8.4-1.28,12.6-1.63,12.6h-22.23c-.4,3.53-.64,5.51-.74,5.93h20.6c.2.02.3.12.3.3-.59,6.2-1.04,10.25-1.33,12.16h-20.9c-.2,2.35-.49,5.01-.89,8h22.98l.3.15c-.89,8.3-1.43,12.8-1.63,13.49h-37.95c-.2,0-.3-.1-.3-.3,2.77-26.16,4.5-41.73,5.19-46.69,16.21-3.95,24.9-5.98,26.09-6.08Zm-25.2,0h7.86v.3c-5.14,1.28-7.96,1.93-8.45,1.93.1-1.48.3-2.22.59-2.22Z" fill="#fff"/>
      </g>
      <g>
        <path d="m2,88.97l41.53-.87c.2.02.3.12.3.29.03,1.57-.15,2.35-.54,2.36L.67,102.36c0-.1-.05-.15-.15-.14.72-8.82,1.21-13.24,1.48-13.24Zm41.22,5.45c0,.1.05.14.15.14-.42,5.39-.76,8.09-1,8.1l-13.35.28c-2.14,25.39-3.29,38.09-3.46,38.1l-14.53.3c-.2,0-.3-.14-.3-.43-.01-.61,1.09-13.16,3.32-37.65l-3.96.08v-.29s33.14-8.62,33.14-8.62Z" fill="#fff"/>
        <path d="m67.21,87.33c.24,0,1.21,3.94,2.89,11.83,3.21,13.34,5.31,22.4,6.29,27.17-9.36,2.84-15.83,4.64-19.41,5.4l-8.51.18c-.25,2.06-1.16,3.11-2.72,3.14-5.18,1.58-8.15,2.37-8.9,2.39l-5.28.11c.3-1.06,5.32-13.54,15.07-37.46,3.07-7.58,4.79-11.72,5.17-12.44l15.41-.32Zm-9.46,17.96c-.18.71-1.75,5.25-4.71,13.6l7.19-.15c-.32-1.34-1.1-5.82-2.34-13.46h-.15Zm16.8,24.02c.2,0,1.05,3.4,2.56,10.22l-.29.15-16.29.34c-.27,0-.61-2.19-1.02-6.58.46-.21,5.47-1.58,15.03-4.13Z" fill="#fff"/>
        <path d="m102.76,88.13l1.03-.02c6.14-.13,10.24,1.65,12.3,5.32,1.42,2.39,2.17,5.31,2.24,8.76l.05,2.49c0,.2-.09.3-.29.3l-13.79.29c-.2,0-.3-.09-.3-.29v-.15c-.09-4.11-1.79-6.13-5.12-6.06-2.73.33-4.08,1.33-4.05,3.02v.44c.04,1.27,2.65,2.39,7.86,3.36,6.25,1.66,10.55,3.96,12.92,6.92,1.62,2.54,2.46,5.36,2.53,8.46.13,5.99-2.4,11.43-7.59,16.31-2.99,2.22-6.39,3.36-10.2,3.44l-5.43.11c-7.07.15-11.55-1.08-13.44-3.68-2.71-3.22-4.12-7.25-4.22-12.1l-.07-3.23c.02-.2.12-.3.29-.3l12.62-.26,1.46-.18.15.29v.59c.12,5.19,2.08,7.74,5.9,7.66h.29c2.64-.06,4.38-1.32,5.21-3.79l-.03-1.47c-.04-2-3.55-3.74-10.53-5.21-7.88-2.53-11.89-7.14-12.03-13.84-.1-4.99,1.81-9.33,5.75-13.04,10.17-2.76,15.67-4.15,16.5-4.16Z" fill="#fff"/>
        <path d="m124.12,86.42l14.38-.3c.2.02.3.12.3.29-.95,10.93-1.46,16.57-1.55,16.92h.15c9.11-11.3,13.88-17.13,14.31-17.48l17.61-.37c.29,0,.55.58.77,1.75l-16.93,18.85c9.25,21,13.87,31.62,13.88,31.86l-.29.15-17.75.37c-.32,0-.94-1.55-1.86-4.66-3.22-8.84-4.99-13.89-5.31-15.16h-.15c-4.28,4.67-6.43,7.16-6.45,7.48-.61,8.43-1.06,12.65-1.35,12.65l-14.53.3-.3-.14c3.01-33.73,4.6-51.18,4.78-52.36l.29-.15Z" fill="#fff"/>
        <path d="m199.09,84.81l11.74-.25c.2,0,.3.14.3.43-.56,8.33-1.01,12.5-1.35,12.51l-22.01.46c-.32,3.51-.52,5.47-.61,5.88l20.4-.43c.2.02.3.12.3.29-.46,6.15-.82,10.17-1.07,12.06l-20.69.43c-.15,2.33-.39,4.97-.71,7.94l22.75-.48.3.14c-.71,8.24-1.15,12.7-1.33,13.39l-37.57.79c-.2,0-.3-.09-.3-.29,2.2-25.96,3.59-41.4,4.17-46.33,15.96-4.25,24.53-6.43,25.7-6.56Zm-24.95.52l7.78-.16v.29c-5.05,1.38-7.83,2.07-8.32,2.08.07-1.47.25-2.21.54-2.21Z" fill="#fff"/>
        <path d="m234.46,84.11c8.58-.18,13.61,1.38,15.07,4.68,1.51,2.1,2.3,4.62,2.36,7.58.14,6.73-2.39,11.97-7.6,15.72-1.28.81-2.05,1.22-2.32,1.22,1.67,1.26,3.18,3.29,4.53,6.07.31.9.47,1.43.47,1.61-.17.2-5.37,1.63-15.62,4.29-1.89-4.95-3.17-7.67-3.84-8.14-.84-.57-1.78-.84-2.81-.82v.15c-.53,7.35-.94,11.03-1.23,11.04-9.54,2.65-14.6,3.97-15.18,3.99,2.69-30.42,4.12-46.06,4.3-46.92l21.86-.46Zm-8.6,44.96c0,.1.05.15.15.14-.36,4.8-.66,7.21-.88,7.21l-14.67.31-.3-.14c.1-2.45.41-3.68.95-3.69,9.51-2.55,14.43-3.83,14.75-3.83Zm.64-32.46l-.71,8.09,4.7-.1c4.11-.09,6.13-1.79,6.06-5.12v-.15c-.04-1.96-1.43-2.91-4.17-2.85l-5.87.12Zm21.26,26.57c3.01,8.06,4.52,12.34,4.53,12.82v.29s-16.58.35-16.58.35c-.5-.5-1.69-3.61-3.57-9.32v-.15s15.62-4,15.62-4Z" fill="#fff"/>
      </g>
      <path d="m202.83,45.54c9.11,5.71,16.93,13.1,24.12,20.99,0,0-9.59,1.32-9.59,1.32.32-.75.64-1.29.98-1.95,4.36-7.86,11.15-14.11,18-19.66,14.22-11.63,30.73-19.81,47.98-25.53,8.53-2.87,17.22-5.08,25.98-6.81,0,0,.28,1.06.28,1.06-8.41,2.87-16.67,6.1-24.67,9.78-22.14,10.33-44.03,24.21-56.84,45.51-.98,1.58-4.71,8.42-5.69,10.14,0,0-5.2-6.58-5.2-6.58-6.44-8.52-12.27-17.56-16.2-27.57,0,0,.85-.7.85-.7h0Z" fill="#fff"/>
    </g>
  </g>
</svg>